<svg id="Capa_1" enable-background="new 0 0 512 512" height="512" viewBox="0 0 512 512" width="512" xmlns="http://www.w3.org/2000/svg"><g><path d="m512 15c0-8.284-6.716-15-15-15h-482c-8.284 0-15 6.716-15 15v76l256 20 256-20z" fill="#393d9d"/><path d="m512 15v76l-256 20v-111h241c8.28 0 15 6.72 15 15z" fill="#182084"/><path d="m0 91v406c0 8.284 6.716 15 15 15h482c8.284 0 15-6.716 15-15v-406z" fill="#edf5ff"/><path d="m512 91v406c0 8.28-6.72 15-15 15h-241v-421z" fill="#d5e8fe"/><path d="m286 286.502h-150c-8.284 0-15 6.716-15 15s6.716 15 15 15h150c8.284 0 15-6.716 15-15s-6.716-15-15-15z" fill="#00ed89"/><path d="m301 301.5c0 8.29-6.72 15-15 15h-30v-30h30c8.28 0 15 6.72 15 15z" fill="#00baa0"/><path d="m256 346.502h-120c-8.284 0-15 6.716-15 15s6.716 15 15 15h120c8.284 0 15-6.716 15-15s-6.716-15-15-15z" fill="#00ed89"/><path d="m271 361.5c0 8.29-6.72 15-15 15v-30c8.28 0 15 6.72 15 15z" fill="#00baa0"/><path d="m286 406.502h-150c-8.284 0-15 6.716-15 15s6.716 15 15 15h150c8.284 0 15-6.716 15-15s-6.716-15-15-15z" fill="#00ed89"/><path d="m301 421.5c0 8.29-6.72 15-15 15h-30v-30h30c8.28 0 15 6.72 15 15z" fill="#00baa0"/><path d="m185.406 252.133c5.857 5.858 15.355 5.859 21.213 0 5.858-5.858 5.858-15.355 0-21.213l-19.393-19.394 19.418-19.418c5.858-5.858 5.858-15.355 0-21.213-5.857-5.858-15.355-5.858-21.213 0l-30.025 30.025c-5.858 5.858-5.858 15.355 0 21.213z" fill="#00ed89"/><path d="m326.544 170.895c-5.857-5.858-15.355-5.858-21.213 0s-5.858 15.355 0 21.213l19.443 19.443-19.356 19.356c-5.857 5.858-5.857 15.355 0 21.213 5.857 5.857 15.355 5.858 21.213 0l29.962-29.963c5.858-5.858 5.858-15.355 0-21.213z" fill="#00baa0"/><path d="m234.292 254.918c7.424 3.712 16.427.687 20.125-6.708l30-60c3.705-7.41.701-16.419-6.708-20.125-7.409-3.705-16.419-.701-20.125 6.708l-30 60c-3.705 7.41-.702 16.42 6.708 20.125z" fill="#00ed89"/><g fill="#00baa0"><path d="m284.42 188.21-28.42 56.84v-67.1l1.58-3.16c3.71-7.41 12.72-10.41 20.13-6.7 7.41 3.7 10.41 12.71 6.71 20.12z"/><path d="m346 316.502h30c8.284 0 15-6.716 15-15s-6.716-15-15-15h-30c-8.284 0-15 6.716-15 15s6.716 15 15 15z"/><path d="m376 346.502h-60c-8.284 0-15 6.716-15 15s6.716 15 15 15h60c8.284 0 15-6.716 15-15s-6.716-15-15-15z"/><path d="m376 406.502h-30c-8.284 0-15 6.716-15 15s6.716 15 15 15h30c8.284 0 15-6.716 15-15s-6.716-15-15-15z"/></g><circle cx="466" cy="46" fill="#cd0000" r="15"/><circle cx="406" cy="46" fill="#ffda2d" r="15"/><circle cx="346" cy="46" fill="#00ed89" r="15"/></g></svg>