<svg id="_x33_0" enable-background="new 0 0 64 64" height="512" viewBox="0 0 64 64" width="512" xmlns="http://www.w3.org/2000/svg"><g><g><g><path d="m41.8 31.54-.16.64c-.48-.12-1.02-.18-1.64-.18-6 0-8 4-8 4s-2-4-8-4c-.35 0-.68.02-.99.07l-.01-.07c.27-.69.61-1.3.98-1.84.92-1.38 2.08-2.32 3.14-2.96 1.56-.94 2.88-1.2 2.88-1.2 3 2 5 0 5 0s4.04.81 6.3 4.6c.18.3.35.61.5.94z" fill="#e6e9ed"/></g><g><path d="m10 40c-1.39.55-2.84 1.38-4 2.66 0-1.34 0-6.37 0-10.66 0-.7.12-1.33.33-1.88 1.24-3.38 5.67-4.12 5.67-4.12v3h6v-3s4.58 0 5.74 4l.24.16c-.37.54-.71 1.15-.98 1.84l.01.07c-2.3.28-3.35 1.61-4.01 2.93-.56 1.13-.77 2.62-.6 4h-3.4s-2.4 0-5 1z" fill="#b4dd7f"/></g><g><path d="m53 27s6 1 6 6v11c-1.73-2.89-4.8-4.11-7.08-4.62l-.92-7.38s2-1 0-3l-.03-.14c1.35-.38 2.03-1.46 2.03-1.46l-.02-.4z" fill="#b4dd7f"/></g><g><path d="m41.8 31.54c-.15-.33-.32-.64-.5-.94 2.06-2.69 5.7-3.6 5.7-3.6v.4s.68 1.08 2.03 1.46l-.03.14c-2 2 0 3 0 3l-.87 7h-2.53c.17-1.38-.04-2.87-.6-4-.6-1.19-1.51-2.38-3.36-2.82z" fill="#b4dd7f"/></g><g><path d="m41 15c0-.3 0-1.23 0-1.73.73-1.48.95-2.92.79-4.24l.21-.03c1.08-1.56 3.33-4 8-4 8 0 9 6 9 6s0 0 0 4-3 6-3 6v-7h-3s-2-3-5-3-4 3-4 3v7s-3-2-3-6z" fill="#b27946"/></g><g><path d="m23.5 9.01c-.36 3.41 1.83 6.07 2.5 6.79v2.2s-.11 1.99.96 3.16c-.17.76-.84 4.08.04 5.84l.12.2c-1.06.64-2.22 1.58-3.14 2.96l-.24-.16c-1.16-4-5.74-4-5.74-4v-2.69c4.44-2.41 3-10.31 3-10.31-4.58 2.03-6.83 1.22-7.93-.07l-.07.07c-2 1-4 0-4 0s-1.44 7.9 3 10.31v2.69s-4.43.74-5.67 4.12l-.33-.12s-3 0-3-3 2-4 2-9-1-12 10-12c4.59 0 7.09 1.22 8.44 3z" fill="#b27946"/></g><g><path d="m41.79 9.03c.16 1.32-.06 2.76-.79 4.24-.44.9-1.07 1.81-1.91 2.73h-.09v-4c-3.22-4-10-4-10-4-.38.12-.7.28-.99.46l-.01-.46s-.75-2.26.29-4.01c.65-1.1 2.01-1.99 4.71-1.99 4.22 0 8.28 3 8.79 7.03z" fill="#656d78"/></g><g><path d="m28.29 3.99c-1.04 1.75-.29 4.01-.29 4.01l.01.46c-2.01 1.24-2.01 3.54-2.01 3.54v3.8c-.67-.72-2.86-3.38-2.5-6.79.06-.65.22-1.32.5-2.01 1.26-3.16 3.89-3.04 4.29-3.01z" fill="#656d78"/></g><g><path d="m48.13 39h.87v12h-1-14v-.12c6.81-3.98 9.72-7.45 11-9.88.31-.58.51-1.27.6-2z" fill="#ecc19c"/></g><g><path d="m30 50.88v.12h-15v-12h3.4c.09.73.29 1.42.6 2 1.28 2.43 4.19 5.9 11 9.88z" fill="#ecc19c"/></g><g><path d="m49 51v11h-17-17v-11h15 4 14z" fill="#cf9e76"/></g><g><path d="m51.92 39.38c2.28.51 5.35 1.73 7.08 4.62v1 10s-7-4-10-4v-12s1.25 0 2.92.38z" fill="#d3a06c"/></g><g><path d="m6 42.66c1.16-1.28 2.61-2.11 4-2.66 2.6-1 5-1 5-1v12c-3 0-10 4-10 4v-11c.3-.49.63-.94 1-1.34z" fill="#d3a06c"/></g><g><path d="m45.6 39c-.09.73-.29 1.42-.6 2-1.28 2.43-4.19 5.9-11 9.88v.12h-4v-.12c-6.81-3.98-9.72-7.45-11-9.88-.31-.58-.51-1.27-.6-2-.17-1.38.04-2.87.6-4 .66-1.32 1.71-2.65 4.01-2.93.31-.05.64-.07.99-.07 6 0 8 4 8 4s2-4 8-4c.62 0 1.16.06 1.64.18 1.85.44 2.76 1.63 3.36 2.82.56 1.13.77 2.62.6 4z" fill="#ff826e"/></g><g><path d="m51 32 .92 7.38c-1.67-.38-2.92-.38-2.92-.38h-.87l.87-7z" fill="#fcd770"/></g><g><path d="m51 29c2 2 0 3 0 3h-2s-2-1 0-3l.03-.14c.29.09.61.14.97.14s.68-.05.97-.14z" fill="#ffc729"/></g><g><path d="m52.89 24.6.09 2.4.02.4s-.68 1.08-2.03 1.46c-.29.09-.61.14-.97.14s-.68-.05-.97-.14c-1.35-.38-2.03-1.46-2.03-1.46v-.4-2.44c.78.27 1.76.44 3 .44 1.18 0 2.13-.16 2.89-.4z" fill="#f0d0b4"/></g><g><path d="m56 21s0 2.58-3.11 3.6c-.76.24-1.71.4-2.89.4-1.24 0-2.22-.17-3-.44-3-1.04-3-3.56-3-3.56v-7s1-3 4-3 5 3 5 3h3z" fill="#f0d0b4"/></g><g><path d="m35 22v4s-2 2-5 0v-4h3z" fill="#f0d0b4"/></g><g><path d="m26.96 21.16c-1.07-1.17-.96-3.16-.96-3.16v-2.2-3.8s0-2.3 2.01-3.54c.29-.18.61-.34.99-.46 0 0 6.78 0 10 4v4 2s.22 4-3 4h-1-2-3-1c-.95 0-1.6-.35-2.04-.84z" fill="#f0d0b4"/></g><g><path d="m18 23.31v2.69 3h-6v-3-2.69c.79.43 1.78.69 3 .69s2.2-.26 3-.69z" fill="#f0d0b4"/></g><g><path d="m13.07 12.93c1.1 1.29 3.35 2.1 7.93.07 0 0 1.44 7.9-3 10.31-.8.43-1.78.69-3 .69s-2.21-.26-3-.69c-4.44-2.41-3-10.31-3-10.31s2 1 4 0z" fill="#f0d0b4"/></g></g><g><circle cx="30" cy="14" r="1"/><circle cx="35" cy="14" r="1"/><circle cx="12" cy="17" r="1"/><circle cx="18" cy="17" r="1"/><path d="m29.293 18.707c.537.538 1.642 1.177 3.071 1.177.944 0 2.032-.279 3.19-1.052l-1.109-1.664c-2.207 1.473-3.597.259-3.747.116z"/><path d="m48.701 20.287-1.408 1.42c.619.619 1.643 1.177 2.776 1.177.859 0 1.781-.32 2.638-1.177l-1.414-1.414c-1.181 1.18-2.282.294-2.592-.006z"/><path d="m14.997 21.912c.881 0 1.831-.326 2.71-1.205l-1.414-1.414c-1.197 1.195-2.303.368-2.612.085l-1.367 1.46c.602.57 1.588 1.074 2.683 1.074z"/><circle cx="47" cy="17" r="1"/><circle cx="53" cy="17" r="1"/><path d="m56.934 21.543c.898-.743 3.066-2.911 3.066-6.543v-4l-.014-.165c-.011-.068-1.24-6.835-9.986-6.835-3.161 0-5.731 1.04-7.684 3.066-.048-.125-.097-.245-.146-.357-1.474-3.361-5.244-5.709-9.17-5.709-2.419 0-4.166.672-5.218 1.984-1.429.067-3.599.865-4.711 3.645-.062.155-.101.306-.153.459-1.803-1.395-4.407-2.088-7.918-2.088-4.021 0-6.853.891-8.657 2.722-2.451 2.487-2.397 6.171-2.354 9.131.005.391.011.774.011 1.147 0 2.62-.566 4.001-1.114 5.336-.456 1.109-.886 2.157-.886 3.664 0 2.423 1.63 3.559 3.103 3.885-.06.355-.103.722-.103 1.115v10.299c-.305.367-.598.754-.857 1.187l-.143.237v13l1.496-.854c1.643-.939 5.944-3.182 8.504-3.742v10.873h18 18v-10.873c2.56.559 6.861 2.803 8.504 3.741l1.496.855v-11.723-1.277-10.723c0-4.125-3.554-6.132-6-6.798v-.971c2.168-1.022 2.767-2.798 2.934-3.688zm-6.934-15.543c6.649 0 7.862 4.466 8 5.097v3.903c0 1.475-.466 2.632-1 3.475v-4.475c0-3.678-3.533-4.898-3.684-4.949l-.638 1.896c.095.032 2.322.829 2.322 3.053v6.987c-.008.308-.219 3.013-5 3.013s-4.992-2.705-5-3v-6.814c.211-.501 1.066-2.186 3-2.186 2.415 0 4.152 2.532 4.168 2.555l1.664-1.109c-.094-.141-2.337-3.446-5.832-3.446-3.679 0-4.898 3.533-4.948 3.684l-.052.154v4.63c-.534-.843-1-1.998-1-3.467v-1.482c.685-1.464.884-2.809.834-3.964 1.667-2.392 4.012-3.555 7.166-3.555zm-41 27v6.336c-.675.301-1.351.676-2 1.129v-8.465c0-2.884 2.475-4.178 4-4.701v2.701h8v-2.878c1.195.24 3.112.959 3.759 3.112-.174.302-.337.622-.489.959-2.426.524-3.536 2.104-4.165 3.36-.505 1.011-.758 2.233-.762 3.447h-2.343c-.147 0-1.879.021-4 .62v-5.62zm3.87-18.863c.126.104.261.204.405.297 1.649 1.071 3.963 1.064 6.888-.013.145 1.796.148 5.114-1.473 7.053-.859 1.027-2.066 1.526-3.69 1.526s-2.831-.499-3.69-1.526c-1.653-1.978-1.616-5.39-1.464-7.159.798.164 1.886.227 3.024-.178zm.13 10.682v-.063c.619.157 1.283.244 2 .244s1.381-.087 2-.244v1.244 1 1h-4v-2zm14-6.819v-5.993c.001-.092.059-2.204 2.161-3.003.98.034 6.146.355 8.839 3.363l.001 5.686c.022.452-.064 1.775-.721 2.465-.308.324-.727.482-1.28.482h-7c-.553 0-.972-.158-1.28-.482-.657-.69-.743-2.014-.72-2.518zm4 5h3v2.51c-.483.295-1.538.704-3-.075zm-3.311-.221c.406.137.841.221 1.311.221v2.243c-.361.117-.817.29-1.335.534-.159-.865-.111-1.986.024-2.998zm2.169 4.29c1.003.577 1.947.815 2.778.815 1.091 0 1.99-.373 2.595-.788 1.003.308 3.546 1.319 5.157 3.931-.133-.005-.248-.027-.388-.027-4.36 0-6.818 1.939-8 3.289-1.124-1.283-3.423-3.08-7.394-3.255 1.666-2.721 4.316-3.697 5.252-3.965zm-13.858 12.931h1.579c.128.522.302 1.02.536 1.465 1.51 2.875 4.414 5.737 8.607 8.535h-10.722zm14.479 10c-6.704-3.921-9.462-7.311-10.594-9.465-.729-1.386-.724-3.621.01-5.087.635-1.272 1.572-2.448 4.105-2.448 5.259 0 7.036 3.313 7.105 3.447l.895 1.789.895-1.789c.017-.034 1.785-3.447 7.105-3.447 2.533 0 3.47 1.176 4.105 2.447.733 1.467.738 3.701.01 5.087-1.132 2.154-3.89 5.544-10.594 9.465h-3.042zm15.406-8.535c.234-.445.408-.943.536-1.465h1.579v10h-10.722c4.193-2.797 7.097-5.66 8.607-8.535zm3.372-3.458.626-5.007h.234l.644 5.148c-.685-.096-1.212-.131-1.504-.141zm1.249-8.056c.364.435.39.687.38.758-.016.113-.109.216-.194.291h-1.383c-.084-.074-.175-.176-.193-.286-.023-.141.079-.409.375-.763.167.019.328.049.509.049.18 0 .339-.03.506-.049zm-3.365 1.084c.105.649.464 1.117.795 1.422l-.694 5.543h-.585c-.004-1.214-.257-2.436-.763-3.447-.517-1.034-1.366-2.285-2.997-2.993-.121-.296-.25-.579-.388-.85 1.237-1.317 2.891-2.087 3.882-2.459.223.272.609.666 1.152 1.017-.346.591-.497 1.182-.402 1.767zm-1.141-4.771c-1.052.365-2.995 1.194-4.59 2.719-1.82-2.323-4.188-3.343-5.41-3.74v-2.243c1.103 0 2.05-.385 2.737-1.112 1.361-1.439 1.276-3.692 1.263-3.888v-1.527c.038-.043.073-.085.11-.128.442 2.824 2.175 4.552 2.956 5.198.166.89.766 2.666 2.934 3.688zm-16.74-21.937c.634-.881 1.892-1.327 3.74-1.327 3.156 0 6.174 1.855 7.339 4.512.761 1.736.62 3.621-.339 5.479v-1.344l-.222-.274c-3.484-4.323-10.482-4.373-10.778-4.373h-.162l-.035.012c-.111-.71-.154-1.838.457-2.685zm-4.331 3.045c.5-1.25 1.235-1.85 1.883-2.137-.182 1.168.019 2.244.149 2.762-1.505 1.228-1.961 3.021-1.961 4.003v.386c-.553-1.367-.831-3.116-.071-5.014zm-20.929 19.628c0-1.112.324-1.903.735-2.905.564-1.372 1.265-3.08 1.265-6.095 0-.382-.006-.775-.012-1.176-.04-2.722-.085-5.807 1.779-7.698 1.41-1.431 3.776-2.126 7.233-2.126 3.658 0 6.098.794 7.469 2.406-.145 3.209 1.63 5.722 2.533 6.778l.001 1.759c-.013.226-.074 2.049.885 3.461-.235 1.176-.595 3.621-.023 5.425-.59.419-1.189.925-1.754 1.543-1.219-2.139-3.457-3.04-5.11-3.291v-1.217c.451-.31.864-.676 1.229-1.112 2.891-3.464 1.803-9.668 1.755-9.931l-.228-1.252-1.162.517c-2.813 1.25-4.962 1.485-6.217.678-1.342-.861-1.378-2.75-1.378-2.769l-1 .005h-1c0 .075.011 1.206.559 2.401-1.138.155-2.103-.292-2.112-.296l-1.192-.596-.238 1.312c-.048.262-1.136 6.467 1.755 9.931.364.436.778.802 1.229 1.112v1.338c-1.752.477-4.07 1.642-5.246 3.781-.571-.059-1.755-.374-1.755-1.983zm2 26.313v-9.026c2.077-3.192 6.125-4.007 8-4.215v10.026c-2.452.423-5.985 2.15-8 3.215zm42 7.687h-16-16v-9h32zm10-7.687c-2.015-1.065-5.548-2.792-8-3.215v-10.026c1.877.208 5.924 1.023 8 4.214v.714zm0-20.313v8.264c-1.604-1.436-3.514-2.244-5.171-2.691l-.765-6.116c.331-.305.689-.772.795-1.422.095-.585-.056-1.176-.403-1.766.591-.382.988-.809 1.2-1.079 1.461.438 4.344 1.695 4.344 4.81zm-6-5.937c-.283.323-.958.937-2 .937-1.046 0-1.718-.612-2-.936v-1.235c.597.104 1.251.171 2 .171s1.403-.067 2-.171z"/></g></g></svg>