<svg id="Capa_1" enable-background="new 0 0 512 512" height="512" viewBox="0 0 512 512" width="512" xmlns="http://www.w3.org/2000/svg"><g id="Lock"><path d="m64 224h384v288h-384z" fill="#4db5ff"/><path d="m256 0c-70.693 0-128 57.307-128 128v96h32v-96c0-52.938 43.063-96 96-96s96 43.063 96 96v96h32v-96c0-70.693-57.307-128-128-128z" fill="#80eaff"/><path d="m288 352c0-17.674-14.326-32-32-32s-32 14.326-32 32c0 11.715 6.607 21.521 16 27.096v68.904h32v-68.904c9.393-5.575 16-15.381 16-27.096z" fill="#80eaff"/><g fill="#4d7cff"><path d="m128 224h32v64h-32z"/><path d="m352 224h32v64h-32z"/></g></g></svg>