<svg id="Capa_1" enable-background="new 0 0 512 512" height="512" viewBox="0 0 512 512" width="512" xmlns="http://www.w3.org/2000/svg"><g><path d="m91.005 0v32h28.455c2.104 48.181 13.458 87.059 30.562 119.91 48.638-1.044 75.018-7.637 102.35-14.471 29.949-7.473 60.571-15.117 120.463-15.39 9.725-26.054 16.007-55.656 17.523-90.049h30.646v-32c-3.129 0-333.645 0-329.999 0z"/><path d="m390.03 482c-5.219-108.181-58.517-168.437-114.051-224.066 31.143-31.049 61.562-63.82 83.41-105.617-47.695 1.278-74.013 7.806-99.752 14.229-24.778 6.204-50.334 12.438-92.258 14.584 19.446 28.634 42.603 53.227 66.222 76.776-55.35 55.174-108.814 115.393-114.027 224.094h-28.57v30c5.442 0 333.032 0 330 0v-30c-3.02 0-33.994 0-30.974 0zm-149.025-150h30v30h-30zm72.676 150-46.207-54.668c-5.742-6.768-17.197-6.768-22.939 0l-46.212 54.668h-39.282l62.584-74.033c17.139-20.303 51.621-20.303 68.76 0l62.576 74.033z"/></g></svg>